<svg xmlns="http://www.w3.org/2000/svg" version="1.1" xmlns:xlink="http://www.w3.org/1999/xlink" xmlns:svgjs="http://svgjs.com/svgjs" width="375" height="260" preserveAspectRatio="none" viewBox="0 0 375 260"><g mask="url(&quot;#SvgjsMask1075&quot;)" fill="none"><rect width="375" height="260" x="0" y="0" fill="url(#SvgjsLinearGradient1076)"></rect><path d="M340.21 189.14 a20.68 20.68 0 1 0 41.36 0 a20.68 20.68 0 1 0 -41.36 0z" stroke="rgba(255, 255, 255, 0.44)"></path><path d="M267.06 208.1a23.55 23.55 0 1 0 42.18 20.94z" stroke="rgba(255, 255, 255, 0.44)"></path><path d="M297.9 243.09 a4.7 4.7 0 1 0 9.4 0 a4.7 4.7 0 1 0 -9.4 0z" fill="rgba(255, 255, 255, 0.44)"></path><path d="M205.87 237.62L226.2 237.62L226.2 239.8L205.87 239.8z" stroke="rgba(255, 255, 255, 0.44)"></path><path d="M265.41 156.88L276.1 156.88L276.1 174.92L265.41 174.92z" fill="rgba(255, 255, 255, 0.44)"></path><path d="M301.59 120.62L309.83 120.62L309.83 128.86L301.59 128.86z" stroke="rgba(255, 255, 255, 0.44)"></path><path d="M234.8 37.48L256.54 37.48L256.54 59.22L234.8 59.22z" stroke="rgba(255, 255, 255, 0.44)"></path><path d="M254.75 125.85L259.21 125.85L259.21 130.31L254.75 130.31z" stroke="rgba(255, 255, 255, 0.44)"></path><path d="M111.95 147.27L114.41 147.27L114.41 149.73L111.95 149.73z" fill="rgba(255, 255, 255, 0.44)"></path><path d="M38.87 7.51L42.58 7.51L42.58 13.13L38.87 13.13z" stroke="rgba(255, 255, 255, 0.44)"></path><path d="M-4.65 204.04a11.59 11.59 0 1 0 10.9 20.46z" stroke="rgba(255, 255, 255, 0.44)"></path><path d="M308.54 235.07L313.34 235.07L313.34 253.5L308.54 253.5z" stroke="rgba(255, 255, 255, 0.44)"></path><path d="M244.37 38.51 a6.27 6.27 0 1 0 12.54 0 a6.27 6.27 0 1 0 -12.54 0z" stroke="rgba(255, 255, 255, 0.44)"></path><path d="M201.37 141.57L207.42 141.57L207.42 143.5L201.37 143.5z" stroke="rgba(255, 255, 255, 0.44)"></path><path d="M53.64 187.97 a3.66 3.66 0 1 0 7.32 0 a3.66 3.66 0 1 0 -7.32 0z" fill="rgba(255, 255, 255, 0.44)"></path><path d="M94.11 87.25L104.91 87.25L104.91 98.05L94.11 98.05z" fill="rgba(255, 255, 255, 0.44)"></path><path d="M356.78 28.75 a14.83 14.83 0 1 0 29.66 0 a14.83 14.83 0 1 0 -29.66 0z" stroke="rgba(255, 255, 255, 0.44)"></path><path d="M160.04 108.98L180.32 108.98L180.32 129.26L160.04 129.26z" stroke="rgba(255, 255, 255, 0.44)"></path><path d="M163.57 116.42 a21.38 21.38 0 1 0 42.76 0 a21.38 21.38 0 1 0 -42.76 0z" stroke="rgba(255, 255, 255, 0.44)"></path></g><defs><mask id="SvgjsMask1075"><rect width="375" height="260" fill="#ffffff"></rect></mask><linearGradient x1="7.67%" y1="-11.06%" x2="92.33%" y2="111.06%" gradientUnits="userSpaceOnUse" id="SvgjsLinearGradient1076"><stop stop-color="rgba(0, 155, 222, 1)" offset="0"></stop><stop stop-color="rgba(0, 112, 207, 1)" offset="1"></stop></linearGradient></defs></svg>