<svg xmlns="http://www.w3.org/2000/svg" version="1.1" xmlns:xlink="http://www.w3.org/1999/xlink" xmlns:svgjs="http://svgjs.com/svgjs" width="375" height="260" preserveAspectRatio="none" viewBox="0 0 375 260"><g mask="url(&quot;#SvgjsMask1034&quot;)" fill="none"><rect width="375" height="260" x="0" y="0" fill="rgba(0, 41, 181, 1)"></rect><path d="M61.74 245.69L80.18 245.69L80.18 264.13L61.74 264.13z" stroke="rgba(255, 255, 255, 0.28)"></path><path d="M293.58 54.58 a6.84 6.84 0 1 0 13.68 0 a6.84 6.84 0 1 0 -13.68 0z" stroke="rgba(255, 255, 255, 0.28)"></path><path d="M314.44 94.26L332.81 94.26L332.81 104.38L314.44 104.38z" fill="rgba(255, 255, 255, 0.28)"></path><path d="M292.17 257.29L301.77 257.29L301.77 278.46L292.17 278.46z" stroke="rgba(255, 255, 255, 0.28)"></path><path d="M58.8 254.22L80.82 254.22L80.82 276.24L58.8 276.24z" stroke="rgba(255, 255, 255, 0.28)"></path><path d="M298.98 162.01a4.78 4.78 0 1 0-9.56 0.03z" fill="rgba(255, 255, 255, 0.28)"></path><path d="M187.04 23.49a1.33 1.33 0 1 0 2.64-0.28z" stroke="rgba(255, 255, 255, 0.28)"></path><path d="M307.72 232.92L320.94 232.92L320.94 256.26L307.72 256.26z" fill="rgba(255, 255, 255, 0.28)"></path><path d="M210.67 235.29a2.68 2.68 0 1 0-5.18-1.39z" stroke="rgba(255, 255, 255, 0.28)"></path><path d="M243.26 219.74 a21.77 21.77 0 1 0 43.54 0 a21.77 21.77 0 1 0 -43.54 0z" stroke="rgba(255, 255, 255, 0.28)"></path><path d="M203.17 119.64L208.2 119.64L208.2 122.42L203.17 122.42z" stroke="rgba(255, 255, 255, 0.28)"></path><path d="M-10.45 79.69 a15.89 15.89 0 1 0 31.78 0 a15.89 15.89 0 1 0 -31.78 0z" fill="rgba(255, 255, 255, 0.28)"></path><path d="M153.81 186.06L160.14 186.06L160.14 188.85L153.81 188.85z" stroke="rgba(255, 255, 255, 0.28)"></path><path d="M49.24 124.78L72.62 124.78L72.62 148.16L49.24 148.16z" stroke="rgba(255, 255, 255, 0.28)"></path><path d="M157.84 172.34L160.4 172.34L160.4 174.9L157.84 174.9z" stroke="rgba(255, 255, 255, 0.28)"></path><path d="M7.77 61.9 a9.11 9.11 0 1 0 18.22 0 a9.11 9.11 0 1 0 -18.22 0z" fill="rgba(255, 255, 255, 0.28)"></path><path d="M38.43 52.42a1.96 1.96 0 1 0 3.88-0.52z" fill="rgba(255, 255, 255, 0.28)"></path><path d="M138.81 35 a3.03 3.03 0 1 0 6.06 0 a3.03 3.03 0 1 0 -6.06 0z" fill="rgba(255, 255, 255, 0.28)"></path><path d="M64.67 110.65L78.95 110.65L78.95 111.84L64.67 111.84z" stroke="rgba(255, 255, 255, 0.28)"></path></g><defs><mask id="SvgjsMask1034"><rect width="375" height="260" fill="#ffffff"></rect></mask></defs></svg>