<svg xmlns="http://www.w3.org/2000/svg" version="1.1" xmlns:xlink="http://www.w3.org/1999/xlink" xmlns:svgjs="http://svgjs.com/svgjs" width="375" height="260" preserveAspectRatio="none" viewBox="0 0 375 260"><g mask="url(&quot;#SvgjsMask1047&quot;)" fill="none"><rect width="375" height="260" x="0" y="0" fill="rgba(0, 41, 181, 1)"></rect><path d="M178.07 71.68 a8.74 8.74 0 1 0 17.48 0 a8.74 8.74 0 1 0 -17.48 0z" stroke="rgba(255, 255, 255, 0.44)"></path><path d="M354.2 113.14L363.59 113.14L363.59 122.53L354.2 122.53z" stroke="rgba(255, 255, 255, 0.44)"></path><path d="M144.58 247.1a8.3 8.3 0 1 0-13.88 9.11z" stroke="rgba(255, 255, 255, 0.44)"></path><path d="M147.63 34.46L172.11 34.46L172.11 58.94L147.63 58.94z" fill="rgba(255, 255, 255, 0.44)"></path><path d="M166.05 199.58L166.65 199.58L166.65 220.91L166.05 220.91z" fill="rgba(255, 255, 255, 0.44)"></path><path d="M107.94 142.69a5.17 5.17 0 1 0-6.48-8.06z" stroke="rgba(255, 255, 255, 0.44)"></path><path d="M306.49 98.21a13.59 13.59 0 1 0 6.03 26.5z" fill="rgba(255, 255, 255, 0.44)"></path><path d="M164.93 212.11a4.81 4.81 0 1 0 7.79-5.65z" stroke="rgba(255, 255, 255, 0.44)"></path><path d="M263.3 58.75L280.6 58.75L280.6 76.05L263.3 76.05z" stroke="rgba(255, 255, 255, 0.44)"></path><path d="M317.84 203.69L324.29 203.69L324.29 213.89L317.84 213.89z" fill="rgba(255, 255, 255, 0.44)"></path><path d="M18.61 237.82L32.59 237.82L32.59 249.49L18.61 249.49z" fill="rgba(255, 255, 255, 0.44)"></path><path d="M286.74 177.28 a11.96 11.96 0 1 0 23.92 0 a11.96 11.96 0 1 0 -23.92 0z" fill="rgba(255, 255, 255, 0.44)"></path><path d="M326.5 147.08L328.53 147.08L328.53 148.91L326.5 148.91z" fill="rgba(255, 255, 255, 0.44)"></path><path d="M132.18 175.58a6.81 6.81 0 1 0-9.92-9.34z" fill="rgba(255, 255, 255, 0.44)"></path><path d="M56.24 46.44a17.82 17.82 0 1 0-9.15 34.44z" stroke="rgba(255, 255, 255, 0.44)"></path><path d="M241.13 161.78 a5.7 5.7 0 1 0 11.4 0 a5.7 5.7 0 1 0 -11.4 0z" stroke="rgba(255, 255, 255, 0.44)"></path><path d="M356.19 17.95L356.23 17.95L356.23 22.48L356.19 22.48z" fill="rgba(255, 255, 255, 0.44)"></path><path d="M16.9 110.57L31.73 110.57L31.73 125.4L16.9 125.4z" fill="rgba(255, 255, 255, 0.44)"></path><path d="M277.75 104.76 a9.36 9.36 0 1 0 18.72 0 a9.36 9.36 0 1 0 -18.72 0z" stroke="rgba(255, 255, 255, 0.44)"></path></g><defs><mask id="SvgjsMask1047"><rect width="375" height="260" fill="#ffffff"></rect></mask></defs></svg>